<?xml version="1.0" standalone="no"?>
<!DOCTYPE svg PUBLIC "-//W3C//DTD SVG 20010904//EN"
 "http://www.w3.org/TR/2001/REC-SVG-20010904/DTD/svg10.dtd">
<svg version="1.0" xmlns="http://www.w3.org/2000/svg"
 width="1024.000000pt" height="1024.000000pt" viewBox="0 0 1024.000000 1024.000000"
 preserveAspectRatio="xMidYMid meet">
<metadata>
Created by potrace 1.14, written by Peter Selinger 2001-2017
</metadata>
<g transform="translate(0.000000,1024.000000) scale(0.100000,-0.100000)"
fill="#000000" stroke="none">
<path d="M4900 7375 c-30 -9 -61 -17 -68 -20 -7 -2 -15 -4 -18 -4 -4 0 -10 -3
-13 -8 -3 -4 -27 -18 -52 -31 -47 -24 -77 -46 -157 -119 -43 -39 -71 -55 -58
-34 3 4 -13 27 -36 49 -90 90 -218 117 -330 71 -23 -9 -32 -7 -70 18 -50 33
-113 57 -128 48 -5 -3 -10 -2 -10 3 0 6 -8 8 -17 6 -10 -2 -34 -5 -53 -8 -71
-9 -89 -18 -176 -81 -20 -15 -30 -18 -94 -30 -14 -3 -41 -10 -60 -15 -19 -6
-46 -13 -60 -16 -13 -3 -29 -9 -36 -15 -6 -5 -14 -6 -17 -2 -4 3 -7 0 -7 -7 0
-7 -3 -11 -6 -7 -4 3 -29 -10 -58 -29 -47 -32 -84 -45 -72 -26 6 10 -77 52
-104 52 -10 0 -21 4 -24 8 -6 10 -96 6 -140 -7 -75 -20 -147 -87 -211 -198
-11 -18 -23 -33 -27 -33 -16 0 -80 -65 -104 -106 -48 -81 -49 -167 -5 -258 17
-35 28 -74 26 -87 -8 -50 -16 -198 -16 -294 l0 -100 -48 -23 c-27 -12 -51 -22
-53 -22 -6 0 -1 208 7 305 4 50 8 107 9 127 1 21 3 38 6 38 3 0 6 12 6 28 0
15 4 63 8 107 16 160 14 276 -5 333 -39 113 -134 188 -249 197 -35 2 -119 -18
-155 -38 -56 -31 -110 -90 -155 -171 -23 -41 -72 -166 -65 -166 2 0 -3 -16
-11 -35 -8 -19 -13 -38 -12 -42 1 -5 -1 -21 -5 -38 -32 -144 -45 -295 -42
-485 1 -102 6 -203 10 -225 3 -22 8 -49 10 -60 2 -11 4 -21 6 -22 2 -4 4 -12
14 -58 14 -68 83 -218 117 -254 10 -11 18 -23 18 -26 0 -4 23 -28 51 -55 43
-41 48 -49 32 -54 -45 -16 -125 -116 -170 -212 -15 -33 -28 -63 -30 -69 -8
-33 -29 -85 -33 -85 -3 0 -14 19 -25 43 -28 60 -139 169 -158 155 -2 -2 -11 3
-20 10 -22 19 -132 13 -178 -10 -21 -10 -57 -38 -82 -63 -38 -39 -43 -42 -42
-23 1 13 0 28 -4 33 -3 6 -6 16 -7 23 -6 38 -67 143 -105 181 -67 67 -133 93
-234 92 -58 -1 -75 -4 -93 -14 -6 -5 -12 -6 -12 -3 0 9 -74 -26 -124 -59 -141
-93 -264 -257 -368 -495 -26 -58 -50 -118 -54 -135 -4 -16 -9 -34 -13 -40 -3
-5 -7 -14 -8 -20 -1 -5 -11 -42 -22 -81 -11 -39 -22 -87 -25 -105 -3 -19 -8
-45 -10 -58 -6 -25 -19 -159 -19 -176 6 -94 15 -169 27 -205 7 -25 15 -49 16
-55 20 -69 83 -152 148 -195 l47 -31 1 -67 c0 -37 7 -85 14 -107 8 -22 15 -42
15 -45 4 -18 30 -60 37 -60 4 0 8 -6 8 -14 0 -22 89 -96 147 -123 29 -13 78
-27 110 -29 32 -3 59 -7 61 -9 2 -2 -3 -25 -11 -52 -12 -42 -14 -69 -8 -120 2
-23 41 -36 66 -23 23 13 33 35 41 97 2 18 4 36 5 40 1 4 0 10 -1 13 -7 17 -7
70 0 70 5 0 21 5 37 12 15 6 31 12 34 12 18 3 135 83 176 121 52 49 55 48 66
-23 8 -48 37 -132 61 -171 26 -44 76 -90 98 -91 9 0 20 -4 23 -10 9 -15 67
-12 106 4 39 17 79 57 102 102 14 28 21 50 42 139 3 11 8 40 11 65 6 54 11 84
13 87 0 1 20 -4 43 -11 94 -27 206 8 269 83 31 38 30 38 49 -39 7 -25 20 -64
31 -87 20 -44 90 -119 120 -128 13 -5 18 -13 14 -28 -2 -12 -9 -49 -16 -82 -6
-33 -19 -76 -29 -95 -35 -70 -40 -86 -38 -113 1 -15 12 -38 23 -52 18 -22 23
-24 45 -12 40 20 52 74 51 229 l-1 137 37 7 c21 4 50 13 65 20 32 17 98 100
98 124 0 31 26 30 45 -2 10 -17 25 -38 34 -47 9 -9 28 -31 44 -50 15 -18 27
-30 27 -26 0 3 10 -3 21 -14 12 -11 48 -33 79 -50 73 -37 118 -48 213 -50 l38
-1 -5 -64 c-3 -35 -13 -90 -21 -122 -32 -123 -12 -193 56 -194 19 0 31 10 49
42 20 35 24 57 24 123 -1 44 -4 94 -7 110 -25 116 -25 116 -8 122 134 42 245
120 331 232 14 18 30 38 35 44 19 21 85 134 85 145 0 6 6 9 14 6 8 -3 12 -12
9 -20 -3 -8 -1 -20 5 -27 6 -7 13 -25 16 -39 8 -47 69 -159 116 -214 58 -68
157 -120 227 -119 l33 0 -6 -61 c-6 -54 -4 -64 15 -83 20 -20 23 -20 46 -5 23
15 29 28 28 62 -1 6 3 12 7 12 8 0 4 55 -5 70 -5 8 23 36 34 34 13 -2 41 9 41
15 0 4 18 19 40 34 l41 26 30 -49 c17 -28 35 -50 40 -50 5 0 9 -5 9 -10 0 -13
43 -52 88 -81 49 -32 132 -36 181 -10 38 19 89 61 74 61 -3 0 1 8 9 18 9 9 18
24 21 32 3 8 6 -12 6 -45 2 -120 37 -179 82 -134 16 16 20 29 16 62 -4 39 -7
50 -24 95 -8 23 -12 42 -15 75 -1 15 -5 27 -8 27 -3 0 -4 34 -2 76 1 49 -1 73
-8 69 -6 -4 -8 -11 -5 -16 4 -5 2 -9 -3 -9 -5 0 -13 33 -17 73 -4 39 -9 80
-10 90 -3 18 -13 103 -21 182 -9 86 -11 325 -3 325 12 0 21 -18 11 -24 -5 -3
-7 -24 -6 -48 1 -24 5 -99 9 -167 3 -68 7 -127 9 -130 2 -3 7 -30 10 -60 10
-84 35 -191 58 -246 35 -85 67 -151 86 -173 9 -12 30 -37 46 -57 61 -76 168
-111 242 -80 73 30 134 110 148 191 2 16 5 70 6 119 2 75 4 83 10 50 5 -22 11
-53 15 -70 3 -16 8 -41 11 -55 8 -39 64 -173 79 -190 7 -8 14 -19 15 -25 0 -5
21 -33 45 -62 54 -62 133 -103 198 -103 48 0 117 24 117 40 0 6 6 10 14 10 20
0 65 96 75 159 5 29 7 91 6 137 -1 46 -1 84 1 84 1 0 15 -22 30 -50 15 -27 30
-50 33 -50 3 0 18 -11 32 -24 63 -58 167 -63 237 -10 29 23 80 90 96 128 3 7
8 6 15 -4 5 -8 23 -30 40 -49 34 -38 34 -40 33 -241 0 -58 -3 -122 -7 -142 -9
-47 -1 -82 27 -108 28 -26 53 -25 79 1 19 19 20 29 15 93 -9 99 -10 106 -16
106 -3 0 -6 8 -7 18 -1 9 -9 51 -17 92 -9 41 -16 80 -16 86 0 7 24 2 63 -14
86 -35 224 -37 310 -3 42 16 127 74 170 115 44 42 58 38 77 -20 6 -19 15 -34
20 -34 4 0 11 -11 14 -25 4 -14 11 -25 16 -25 6 0 10 -5 10 -11 0 -18 81 -89
119 -105 44 -19 108 -25 139 -13 27 10 29 6 36 -71 7 -89 19 -118 53 -131 74
-28 102 79 53 201 -23 56 -26 94 -12 114 19 25 34 98 35 165 l1 71 51 16 c43
14 75 27 180 69 11 5 22 9 25 10 3 0 20 9 39 19 35 18 50 12 51 -22 0 -17 54
-125 82 -165 42 -60 107 -115 174 -147 94 -45 216 -50 314 -13 8 4 18 6 22 5
4 -1 40 20 80 47 l73 49 14 -44 c8 -24 18 -44 22 -44 5 0 9 -5 9 -10 0 -14 49
-57 73 -66 16 -5 17 -14 12 -82 -3 -42 -8 -92 -11 -109 -18 -132 -22 -158 -35
-208 -6 -22 -10 -40 -10 -40 1 0 -4 -16 -12 -35 -27 -69 -7 -158 45 -194 30
-21 92 -20 113 1 16 15 33 49 42 83 2 8 5 38 7 67 1 29 5 55 9 59 4 4 3 12 -2
18 -5 6 -12 40 -15 76 -4 36 -9 85 -12 110 -3 25 -7 73 -9 106 -1 34 -5 66 -9
73 -4 6 -3 11 2 11 6 0 9 7 8 17 -1 13 9 17 44 19 25 1 64 5 88 9 41 7 42 7
38 -16 -3 -13 -5 -24 -6 -24 -12 0 -17 -334 -6 -380 4 -16 16 -40 28 -52 39
-42 98 4 98 78 0 16 -13 70 -30 120 -36 110 -56 273 -35 295 6 5 30 20 55 32
138 66 296 244 391 438 18 38 37 72 42 75 5 3 8 10 7 15 -1 8 26 89 47 144 6
16 11 30 17 58 3 9 5 18 6 20 3 2 3 2 15 57 4 22 9 45 10 50 14 59 24 129 19
136 -3 5 -1 9 3 9 5 0 8 21 8 48 -1 26 1 52 4 57 3 6 6 38 7 73 1 35 5 66 8
69 3 4 1 12 -5 19 -7 8 -7 14 1 19 8 5 8 11 -1 21 -9 11 -9 14 0 14 8 0 9 5 1
19 -7 14 -7 22 0 26 6 4 8 10 5 16 -3 5 -8 39 -11 76 -9 145 -32 238 -81 336
-57 115 -158 198 -283 233 -50 14 -177 5 -237 -17 -32 -11 -65 -23 -73 -25 -9
-3 -27 4 -40 16 -69 60 -183 71 -262 25 -27 -15 -48 -30 -48 -34 0 -4 -8 -16
-18 -27 -28 -33 -53 -84 -83 -174 -16 -47 -29 -86 -29 -87 0 -2 0 -6 0 -9 0
-3 -19 5 -42 19 -24 14 -45 25 -48 25 -75 8 -89 16 -116 58 -79 125 -243 145
-347 41 -17 -17 -43 -15 -32 4 4 5 1 9 -6 9 -7 0 -10 3 -6 6 3 3 -8 25 -24 47
-24 34 -27 43 -17 52 29 22 69 84 82 128 8 26 12 47 9 47 -3 0 0 6 6 13 6 8 8
16 5 19 -8 9 -9 102 0 116 4 7 3 12 -2 12 -5 0 -9 12 -9 28 0 15 -3 59 -7 97
-5 39 -10 97 -12 130 -2 33 -4 60 -4 60 -1 0 -3 25 -5 55 -3 30 -7 91 -10 135
-9 106 -11 453 -3 460 3 3 25 8 49 11 89 9 148 28 196 63 43 31 103 114 103
142 0 10 4 20 9 24 6 3 8 14 6 25 -2 11 0 22 4 24 12 8 -12 108 -36 147 -56
89 -166 148 -308 164 -84 10 -93 13 -128 39 -99 76 -251 74 -354 -3 -54 -42
-67 -47 -127 -57 -50 -7 -167 -43 -182 -55 -6 -5 -14 -6 -17 -2 -4 3 -7 1 -7
-5 0 -7 -6 -12 -13 -12 -7 0 -29 -14 -50 -31 -20 -17 -37 -26 -37 -20 0 9 -68
50 -95 58 -55 14 -85 19 -115 16 -47 -3 -120 -24 -120 -33 0 -4 -11 -11 -25
-14 -13 -3 -29 -15 -35 -26 -16 -30 -33 -24 -55 18 -50 95 -188 192 -293 207
-122 17 -222 -2 -330 -62 -61 -33 -177 -139 -217 -196 -11 -16 -28 -38 -37
-49 -10 -11 -20 -30 -24 -42 -4 -11 -10 -23 -14 -26 -16 -11 -98 -191 -104
-227 -1 -7 -5 -16 -9 -19 -4 -4 -7 -13 -7 -20 0 -7 -5 -25 -11 -41 -7 -15 -13
-35 -14 -43 -1 -8 -7 -40 -13 -70 -21 -101 -23 -115 -30 -190 -9 -100 -7 -322
3 -390 4 -30 9 -64 10 -75 1 -11 5 -27 8 -35 2 -8 17 -55 33 -105 15 -49 30
-92 33 -95 3 -3 13 -21 22 -40 47 -101 150 -201 259 -252 l66 -31 -24 -26
c-29 -32 -87 -144 -97 -188 -11 -55 -20 -44 -19 23 1 72 -28 194 -46 194 -4 0
-13 13 -20 30 -7 16 -16 28 -20 25 -4 -3 -10 2 -13 10 -10 25 -89 58 -142 59
-58 1 -125 -30 -167 -76 -21 -24 -30 -28 -45 -20 -21 11 -113 31 -161 34 -23
2 -42 12 -57 30 -13 15 -28 28 -33 28 -16 0 -24 33 -10 42 7 4 25 8 41 8 20 0
27 5 27 20 0 11 8 28 18 38 11 9 37 33 59 54 21 20 50 50 64 68 13 17 32 40
41 52 10 11 20 29 23 39 4 11 11 19 16 19 5 0 9 8 9 18 0 10 5 23 11 29 6 6
12 17 13 24 3 16 24 67 33 82 4 6 1 7 -6 2 -10 -6 -10 -3 0 16 15 30 14 207
-1 227 -2 1 -3 5 -4 10 -7 28 -31 82 -38 82 -4 0 -8 6 -8 14 0 20 -87 104
-132 127 -52 26 -120 49 -132 43 -6 -3 -2 1 8 8 87 58 154 167 179 293 13 63
16 265 5 305 -14 52 -33 99 -49 122 -11 14 -19 29 -19 33 0 4 -19 26 -42 50
-36 36 -85 67 -168 105 -29 13 -204 10 -260 -5z m63 -870 c7 -6 20 -14 30 -18
22 -8 14 -26 -10 -23 -9 2 -40 -3 -70 -10 -29 -7 -53 -9 -53 -5 0 18 24 77 34
83 6 4 7 8 3 8 -4 0 -3 9 4 21 11 21 11 20 31 -11 11 -18 25 -38 31 -45z
m-654 -598 c20 -21 57 -50 83 -65 46 -26 48 -29 45 -67 -10 -118 88 -267 216
-329 52 -26 62 -36 58 -59 -1 -5 3 -6 9 -2 5 3 10 2 10 -4 0 -6 7 -8 15 -5 8
4 15 12 15 19 0 9 9 11 33 6 17 -4 52 -6 77 -5 41 3 43 2 26 -11 -11 -8 -27
-15 -35 -16 -21 -1 -37 -5 -93 -22 -46 -14 -48 -14 -63 9 -8 13 -15 26 -15 30
0 15 -83 72 -120 82 -34 9 -134 5 -138 -6 -2 -7 -9 -12 -16 -12 -19 0 -71 -53
-100 -102 -26 -45 -78 -168 -71 -168 2 0 -2 -18 -10 -40 -8 -22 -14 -43 -14
-45 1 -3 -3 -24 -7 -48 -4 -23 -8 -55 -10 -72 -1 -16 -3 -30 -4 -30 -3 0 -9
-43 -15 -107 -3 -37 -8 -78 -11 -90 -3 -13 -7 -34 -9 -48 -5 -30 -12 -72 -20
-120 -9 -52 -25 -110 -30 -110 -9 0 7 242 21 330 3 19 7 80 8 135 3 79 -1 113
-17 163 -36 112 -117 171 -218 159 -78 -10 -138 -59 -189 -157 -16 -30 -29
-47 -30 -37 0 10 -33 51 -73 91 -107 107 -211 154 -342 156 -71 1 -121 -5
-155 -18 -14 -5 -28 -10 -33 -11 -17 -2 -64 -31 -87 -54 -14 -13 -41 -28 -60
-32 -77 -16 -157 -64 -218 -130 -57 -62 -59 -63 -57 -34 1 16 -2 32 -7 35 -4
3 -6 9 -3 14 15 24 -50 246 -81 277 -10 10 -12 19 -6 25 14 14 32 1 32 -23 0
-23 24 -21 26 2 1 8 2 19 3 26 0 7 20 17 44 23 60 16 145 57 188 91 20 16 40
29 43 29 4 0 19 -11 34 -25 48 -44 148 -90 242 -112 45 -10 183 -3 240 12 71
18 170 63 170 77 0 4 7 8 15 8 8 0 15 5 15 12 0 6 3 9 6 5 4 -3 14 1 22 10 13
12 17 13 20 3 6 -18 61 -88 98 -126 146 -149 386 -120 462 55 24 55 24 57 22
201 -3 188 -4 220 -10 220 -3 0 -6 19 -7 43 -1 23 -5 58 -8 77 l-6 35 27 -40
c15 -22 43 -57 63 -78z m2484 -394 c76 -66 178 -111 277 -120 57 -6 74 -12 53
-20 -7 -3 -13 -11 -13 -19 0 -8 -7 -28 -15 -43 -8 -16 -16 -39 -19 -52 -2 -13
-9 -36 -14 -50 -10 -24 -19 -66 -26 -114 -4 -21 -21 -22 -45 -2 -22 19 -85 46
-93 41 -5 -3 -8 0 -8 6 0 6 -6 10 -12 9 -39 -5 -59 3 -73 31 -48 93 -168 147
-258 116 -42 -14 -88 -44 -105 -68 -16 -23 -32 -23 -32 -1 0 24 -23 83 -32 83
-4 0 -8 6 -8 14 0 7 28 28 63 45 86 43 155 102 227 194 l43 55 27 -36 c15 -21
43 -51 63 -69z m780 -66 c-3 -5 -17 -13 -31 -18 -22 -8 -30 -7 -42 9 -8 10
-23 23 -33 28 -16 9 -14 13 20 36 l38 25 26 -36 c14 -20 24 -40 22 -44z
m-2797 -716 c-5 -7 -15 -251 -16 -368 0 -29 -4 -53 -8 -53 -9 0 -6 405 3 428
3 7 9 10 15 7 6 -4 8 -10 6 -14z"/>
</g>
</svg>
